# xmcd CD database file
#
# Track frame offsets:
#	150
#	12617
#	25415
#	47425
#	76195
#	93682
#	112047
#	126472
#	145145
#	159945
#	180202
#
# Disc length: 2625 seconds
#
# Revision: 0
# Processed by: cddbd v1.5.1PL0 Copyright (c) Steve Scherf et al.
# Submitted via: CDex 1.51
#
DISCID=890a3f0b
DTITLE=Scott Dunbar - From Lake Mary
DYEAR=1900
DGENRE=Blues
TTITLE0=Who Been Foolin' You
TTITLE1=Little Liza Jane
TTITLE2=Memphis Mail
TTITLE3=Vicksburg Blues
TTITLE4=Fourty-Four Blues
TTITLE5=That's Alright Mama
TTITLE6=Easy Rider
TTITLE7=Richard Daley Blues
TTITLE8=Sweet Mama Rollin' Stone
TTITLE9=Blue Vodel
TTITLE10=Goodnight Irene
EXTD=
EXTT0=
EXTT1=
EXTT2=
EXTT3=
EXTT4=
EXTT5=
EXTT6=
EXTT7=
EXTT8=
EXTT9=
EXTT10=
PLAYORDER=
